<?xml version="1.0" standalone="no"?>
<!DOCTYPE svg PUBLIC "-//W3C//DTD SVG 20010904//EN"
 "http://www.w3.org/TR/2001/REC-SVG-20010904/DTD/svg10.dtd">
<svg version="1.0" xmlns="http://www.w3.org/2000/svg"
 width="1024.000000pt" height="1024.000000pt" viewBox="0 0 1024.000000 1024.000000"
 preserveAspectRatio="xMidYMid meet">

<g transform="translate(0.000000,1024.000000) scale(0.100000,-0.100000)"
fill="#000000" stroke="none">
<path d="M4627 10025 c-264 -50 -498 -220 -608 -442 -19 -37 -34 -69 -34 -70
0 -1 -36 16 -80 38 -229 112 -516 110 -743 -5 -74 -37 -187 -131 -237 -196
-89 -115 -140 -247 -154 -395 l-6 -70 -85 -30 c-128 -46 -188 -83 -270 -165
-123 -122 -180 -263 -180 -439 0 -157 48 -287 142 -385 46 -48 47 -50 33 -77
-40 -76 -55 -223 -35 -330 15 -81 72 -192 123 -242 l45 -43 32 -300 c17 -164
39 -365 49 -446 l17 -148 -33 0 c-44 0 -132 -19 -167 -37 -78 -40 -150 -133
-181 -233 -40 -132 -29 -413 25 -627 65 -256 183 -458 333 -569 80 -60 153
-85 267 -93 92 -6 95 -7 98 -31 2 -14 19 -88 38 -164 99 -394 253 -733 437
-958 l47 -58 0 -298 0 -299 -192 -159 c-106 -87 -213 -169 -238 -181 -25 -12
-162 -77 -305 -144 -300 -140 -814 -396 -960 -477 -296 -164 -550 -314 -578
-341 -11 -10 290 -303 443 -430 702 -587 1521 -979 2413 -1156 l129 -25 984 0
984 0 127 25 c1050 209 2004 713 2736 1446 98 98 177 184 175 190 -9 26 -441
271 -771 435 -302 151 -718 339 -1082 489 -113 46 -146 64 -170 94 -16 19
-110 131 -207 248 l-178 212 0 351 0 350 39 78 c91 181 200 496 249 721 l18
84 84 -2 c136 -2 231 32 342 123 211 174 351 527 365 916 6 161 -4 234 -41
315 -50 110 -157 187 -280 201 l-58 7 5 46 c3 25 31 242 61 481 31 239 63 495
73 568 l17 134 55 57 c175 178 221 476 110 708 -38 80 -135 184 -222 238 l-64
40 -6 130 c-9 220 -52 331 -181 461 -66 66 -97 89 -168 124 -136 65 -303 86
-446 56 -46 -9 -65 -10 -67 -2 -2 6 -8 34 -15 61 -6 28 -29 88 -52 134 -31 66
-57 101 -117 161 -237 236 -633 264 -963 70 l-66 -40 -89 88 c-119 117 -220
174 -379 217 -84 23 -290 28 -387 10z"/>
</g>
</svg>
