<svg xmlns="http://www.w3.org/2000/svg" xmlns:xlink="http://www.w3.org/1999/xlink"  zoomAndPan="magnify" viewBox="0 0 375 374.999991" preserveAspectRatio="xMidYMid meet" version="1.2"><defs><clipPath id="b4efdb123b"><path d="M 17.277344 125.246094 L 139.441406 125.246094 L 139.441406 247.410156 L 17.277344 247.410156 Z M 17.277344 125.246094 "/></clipPath><clipPath id="7225e5df11"><path d="M 33.875 141.027344 L 122.84375 141.027344 L 122.84375 231.625 L 33.875 231.625 Z M 33.875 141.027344 "/></clipPath><clipPath id="e6e8b0539f"><path d="M 90.414062 196.480469 L 122.84375 196.480469 L 122.84375 247.40625 L 90.414062 247.40625 Z M 90.414062 196.480469 "/></clipPath><clipPath id="bf587a4c24"><path d="M 90.414062 221.988281 L 122.84375 196.566406 L 122.84375 247.40625 Z M 90.414062 221.988281 "/></clipPath><clipPath id="e0b4ec3eb8"><path d="M 17.0625 124.734375 L 33.871094 124.734375 L 33.871094 140.71875 L 17.0625 140.71875 Z M 17.0625 124.734375 "/></clipPath><clipPath id="31d0636db9"><path d="M 122.84375 231.625 L 139.945312 231.625 L 139.945312 247.914062 L 122.84375 247.914062 Z M 122.84375 231.625 "/></clipPath></defs><g id="ec6f679470"><g clip-rule="nonzero" clip-path="url(#b4efdb123b)"><path style=" stroke:none;fill-rule:nonzero;fill:#000000;fill-opacity:1;" d="M 17.277344 125.246094 L 139.441406 125.246094 L 139.441406 247.410156 L 17.277344 247.410156 Z M 17.277344 125.246094 "/></g><g clip-rule="nonzero" clip-path="url(#7225e5df11)"><path style=" stroke:none;fill-rule:nonzero;fill:#ff3131;fill-opacity:1;" d="M 33.875 141.027344 L 122.84375 141.027344 L 122.84375 231.734375 L 33.875 231.734375 Z M 33.875 141.027344 "/></g><g clip-rule="nonzero" clip-path="url(#e6e8b0539f)"><g clip-rule="nonzero" clip-path="url(#bf587a4c24)"><path style=" stroke:none;fill-rule:nonzero;fill:#ffffff;fill-opacity:1;" d="M 90.414062 247.40625 L 90.414062 196.609375 L 122.84375 196.609375 L 122.84375 247.40625 Z M 90.414062 247.40625 "/></g></g><g clip-rule="nonzero" clip-path="url(#e0b4ec3eb8)"><path style=" stroke:none;fill-rule:nonzero;fill:#ffffff;fill-opacity:1;" d="M 33.871094 124.75 L 17.375 141.007812 L 17.375 124.75 Z M 33.871094 124.75 "/></g><g clip-rule="nonzero" clip-path="url(#31d0636db9)"><path style=" stroke:none;fill-rule:nonzero;fill:#ffffff;fill-opacity:1;" d="M 122.84375 247.898438 L 139.339844 231.644531 L 139.339844 247.898438 Z M 122.84375 247.898438 "/></g><g style="fill:#171717;fill-opacity:1;"><g transform="translate(159.809248, 223.035521)"><path style="stroke:none" d="M 8.90625 0 L 8.90625 -74.203125 L 25.765625 -74.203125 L 25.765625 -15.796875 L 58.1875 -15.796875 L 58.1875 0 Z M 8.90625 0 "/></g></g><g style="fill:#171717;fill-opacity:1;"><g transform="translate(211.515363, 223.035521)"><path style="stroke:none" d="M 34.34375 1.484375 C 28.40625 1.484375 23.15625 0.25 18.59375 -2.21875 C 14.039062 -4.695312 10.492188 -8.144531 7.953125 -12.5625 C 5.410156 -16.976562 4.140625 -22.082031 4.140625 -27.875 C 4.140625 -33.664062 5.425781 -38.753906 8 -43.140625 C 10.582031 -47.523438 14.148438 -50.953125 18.703125 -53.421875 C 23.265625 -55.898438 28.550781 -57.140625 34.5625 -57.140625 C 40.914062 -57.140625 46.40625 -55.722656 51.03125 -52.890625 C 55.664062 -50.066406 59.203125 -46.109375 61.640625 -41.015625 C 64.078125 -35.929688 65.117188 -30 64.765625 -23.21875 L 20.140625 -23.21875 C 20.921875 -19.394531 22.617188 -16.476562 25.234375 -14.46875 C 27.847656 -12.457031 30.988281 -11.453125 34.65625 -11.453125 C 37.34375 -11.453125 39.800781 -11.960938 42.03125 -12.984375 C 44.257812 -14.003906 46.039062 -15.4375 47.375 -17.28125 L 63.703125 -17.28125 C 61.304688 -11.414062 57.523438 -6.820312 52.359375 -3.5 C 47.203125 -0.175781 41.195312 1.484375 34.34375 1.484375 Z M 20.25 -33.390625 L 49.1875 -33.390625 C 48.269531 -36.785156 46.554688 -39.453125 44.046875 -41.390625 C 41.535156 -43.335938 38.40625 -44.3125 34.65625 -44.3125 C 31.125 -44.3125 28.066406 -43.335938 25.484375 -41.390625 C 22.910156 -39.453125 21.164062 -36.785156 20.25 -33.390625 Z M 20.25 -33.390625 "/></g></g><g style="fill:#171717;fill-opacity:1;"><g transform="translate(270.957005, 223.035521)"><path style="stroke:none" d="M 35.40625 1.484375 C 29.257812 1.484375 23.832031 0.25 19.125 -2.21875 C 14.425781 -4.695312 10.753906 -8.144531 8.109375 -12.5625 C 5.460938 -16.976562 4.140625 -22.082031 4.140625 -27.875 C 4.140625 -33.664062 5.460938 -38.753906 8.109375 -43.140625 C 10.753906 -47.523438 14.425781 -50.953125 19.125 -53.421875 C 23.832031 -55.898438 29.257812 -57.140625 35.40625 -57.140625 C 41.550781 -57.140625 46.972656 -55.898438 51.671875 -53.421875 C 56.367188 -50.953125 60.023438 -47.523438 62.640625 -43.140625 C 65.253906 -38.753906 66.5625 -33.664062 66.5625 -27.875 C 66.5625 -22.082031 65.253906 -16.976562 62.640625 -12.5625 C 60.023438 -8.144531 56.367188 -4.695312 51.671875 -2.21875 C 46.972656 0.25 41.550781 1.484375 35.40625 1.484375 Z M 20.03125 -27.875 C 20.03125 -23.351562 21.460938 -19.644531 24.328125 -16.75 C 27.191406 -13.851562 30.882812 -12.40625 35.40625 -12.40625 C 39.925781 -12.40625 43.597656 -13.851562 46.421875 -16.75 C 49.253906 -19.644531 50.671875 -23.351562 50.671875 -27.875 C 50.671875 -32.46875 49.253906 -36.195312 46.421875 -39.0625 C 43.597656 -41.925781 39.925781 -43.359375 35.40625 -43.359375 C 30.882812 -43.359375 27.191406 -41.925781 24.328125 -39.0625 C 21.460938 -36.195312 20.03125 -32.46875 20.03125 -27.875 Z M 20.03125 -27.875 "/></g></g></g></svg>